<?xml version="1.0" encoding="utf-8"?>
<!-- Generator: Adobe Illustrator 23.0.2, SVG Export Plug-In . SVG Version: 6.00 Build 0)  -->
<svg version="1.1" id="Layer_1" xmlns="http://www.w3.org/2000/svg" xmlns:xlink="http://www.w3.org/1999/xlink" x="0px" y="0px"
	 viewBox="0 0 114.78 114.78" style="enable-background:new 0 0 114.78 114.78;" xml:space="preserve">
<style type="text/css">
	.st0{clip-path:url(#SVGID_2_);fill:none;stroke:#FFFFFF;stroke-width:2.911;}
	.st1{clip-path:url(#SVGID_2_);fill:#FFFFFF;}
	.st2{clip-path:url(#SVGID_2_);fill:#FEC010;}
</style>
<g>
	<defs>
		<rect id="SVGID_1_" width="114.78" height="114.78"/>
	</defs>
	<clipPath id="SVGID_2_">
		<use xlink:href="#SVGID_1_"  style="overflow:visible;"/>
	</clipPath>
	<path class="st0" d="M57.39,113.33c30.89,0,55.94-25.04,55.94-55.94S88.29,1.46,57.39,1.46S1.46,26.5,1.46,57.39
		S26.5,113.33,57.39,113.33z"/>
	<path class="st1" d="M57.39,36.04c-11.77,0-21.35,9.58-21.35,21.35c0,11.77,9.58,21.35,21.35,21.35s21.35-9.58,21.35-21.35
		C78.74,45.62,69.16,36.04,57.39,36.04 M57.39,80.68c-12.84,0-23.29-10.45-23.29-23.29c0-12.84,10.45-23.29,23.29-23.29
		s23.29,10.45,23.29,23.29C80.68,70.23,70.23,80.68,57.39,80.68"/>
	<path class="st2" d="M54.48,66.13c-0.25,0-0.5-0.09-0.69-0.28l-7.76-7.76l1.37-1.37l7.08,7.08l15.81-15.81l1.37,1.37l-16.5,16.5
		C54.98,66.03,54.73,66.13,54.48,66.13"/>
</g>
</svg>
